<?xml version="1.0" standalone="no"?>
<!DOCTYPE svg PUBLIC "-//W3C//DTD SVG 20010904//EN"
 "http://www.w3.org/TR/2001/REC-SVG-20010904/DTD/svg10.dtd">
<svg version="1.0" xmlns="http://www.w3.org/2000/svg"
 width="84.000000pt" height="84.000000pt" viewBox="0 0 84.000000 84.000000"
 preserveAspectRatio="xMidYMid meet">
<metadata>
Created by potrace 1.14, written by Peter Selinger 2001-2017
</metadata>
<g transform="translate(0.000000,84.000000) scale(0.100000,-0.100000)"
fill="#000000" stroke="none">
<path d="M321 810 c-41 -11 -84 -27 -95 -35 -12 -8 -44 -30 -72 -49 -68 -45
-84 -94 -92 -269 -9 -228 37 -339 165 -398 90 -41 236 -51 293 -20 19 10 54
28 77 39 24 12 79 56 123 99 64 63 82 86 87 116 3 23 2 37 -5 37 -5 0 -50 -40
-99 -88 -81 -81 -94 -91 -160 -111 -95 -30 -155 -20 -208 36 -75 81 -117 219
-91 297 29 84 38 96 105 132 121 64 205 78 273 46 42 -20 99 -68 123 -106 10
-14 26 -26 36 -26 29 0 26 68 -6 111 -13 19 -29 43 -34 54 -20 44 -133 115
-183 115 -7 0 -26 7 -43 16 -48 25 -112 26 -194 4z m174 -49 c27 -11 76 -29
107 -41 31 -12 59 -28 62 -35 3 -9 -9 -7 -41 7 -74 33 -196 13 -303 -49 -30
-18 -71 -49 -90 -69 l-35 -38 1 -115 c1 -96 5 -124 22 -164 26 -58 110 -167
128 -167 7 0 16 -4 19 -10 10 -16 -55 1 -119 31 -65 32 -80 48 -115 129 -21
49 -24 70 -25 190 -1 121 1 139 21 177 39 71 120 127 233 158 64 18 79 17 135
-4z"/>
</g>
</svg>
